<svg id="kity_svg_6" xmlns="http://www.w3.org/2000/svg" xmlns:xlink="http://www.w3.org/1999/xlink" version="1.1" width="1098" height="387" style="background: rgb(251, 251, 251); visibility: visible;" viewBox="0 0 1098 387"><defs id="kity_defs_7"><linearGradient id="kity_linearGradient_17" x1="0" y1="0" x2="0" y2="1"><stop id="kity_stop_18" offset="0" stop-color="rgb(255, 255, 255)"></stop><stop id="kity_stop_19" offset="1" stop-color="rgb(204, 204, 204)"></stop></linearGradient><marker id="kity_marker_2" orient="auto" refX="6" refY="0" viewBox="-7 -7 14 14" markerWidth="7" markerHeight="7" markerUnits="userSpaceOnUse"><path id="kity_path_3" fill="rgb(115, 161, 191)" stroke="none" d="M6,0A6,6,0,1,1,-6,0A6,6,0,1,1,6,0"></path></marker></defs><g id="kity_g_8"><g id="minder1" text-rendering="optimize-speed"><g id="minder_connect_group1"><path id="kity_path_31" fill="none" stroke="rgb(115, 161, 191)" stroke-width="1" d="M549.5,60.5v30h-483.5V110.5"></path><path id="kity_path_33" fill="none" stroke="rgb(115, 161, 191)" stroke-width="1" d="M40.5,138.5V186.5L60.5,186.5"></path><path id="kity_path_35" fill="none" stroke="rgb(115, 161, 191)" stroke-width="1" d="M40.5,138.5V242.5L60.5,242.5"></path><path id="kity_path_37" fill="none" stroke="rgb(115, 161, 191)" stroke-width="1" d="M40.5,138.5V298.5L60.5,298.5"></path><path id="kity_path_39" fill="none" stroke="rgb(115, 161, 191)" stroke-width="1" d="M40.5,138.5V354.5L60.5,354.5"></path><path id="kity_path_41" fill="none" stroke="rgb(115, 161, 191)" stroke-width="1" d="M549.5,60.5v30h-230V110.5"></path><path id="kity_path_43" fill="none" stroke="rgb(115, 161, 191)" stroke-width="1" d="M270.5,138.5V186.5L290.5,186.5"></path><path id="kity_path_45" fill="none" stroke="rgb(115, 161, 191)" stroke-width="1" d="M270.5,138.5V242.5L290.5,242.5"></path><path id="kity_path_47" fill="none" stroke="rgb(115, 161, 191)" stroke-width="1" d="M270.5,138.5V298.5L290.5,298.5"></path><path id="kity_path_49" fill="none" stroke="rgb(115, 161, 191)" stroke-width="1" d="M549.5,60.5v30h-77V110.5"></path><path id="kity_path_51" fill="none" stroke="rgb(115, 161, 191)" stroke-width="1" d="M447.5,138.5V186.5L467.5,186.5"></path><path id="kity_path_53" fill="none" stroke="rgb(115, 161, 191)" stroke-width="1" d="M447.5,138.5V242.5L467.5,242.5"></path><path id="kity_path_55" fill="none" stroke="rgb(115, 161, 191)" stroke-width="1" d="M447.5,138.5V298.5L467.5,298.5"></path><path id="kity_path_57" fill="none" stroke="rgb(115, 161, 191)" stroke-width="1" d="M447.5,138.5V354.5L467.5,354.5"></path><path id="kity_path_59" fill="none" stroke="rgb(115, 161, 191)" stroke-width="1" d="M549.5,60.5v30h152V110.5"></path><path id="kity_path_61" fill="none" stroke="rgb(115, 161, 191)" stroke-width="1" d="M676.5,138.5V186.5L696.5,186.5"></path><path id="kity_path_63" fill="none" stroke="rgb(115, 161, 191)" stroke-width="1" d="M676.5,138.5V242.5L696.5,242.5"></path><path id="kity_path_65" fill="none" stroke="rgb(115, 161, 191)" stroke-width="1" d="M549.5,60.5v30h318.5V110.5"></path><path id="kity_path_67" fill="none" stroke="rgb(115, 161, 191)" stroke-width="1" d="M826.5,138.5V186.5L846.5,186.5"></path><path id="kity_path_69" fill="none" stroke="rgb(115, 161, 191)" stroke-width="1" d="M549.5,60.5v30h484.5V110.5"></path><path id="kity_path_71" fill="none" stroke="rgb(115, 161, 191)" stroke-width="1" d="M1008.5,138.5V186.5L1028.5,186.5"></path></g><g id="minder_node1"><path id="node_outline1" fill="#73a1bf" stroke="rgb(115, 161, 191)" d="M497.5,20.5h103a5,5,0,0,1,5,5v30a5,5,0,0,1,-5,5h-103a5,5,0,0,1,-5,-5v-30a5,5,0,0,1,5,-5z" stroke-width="3"></path><g id="node_text1" fill="white"><text id="kity_text_22" text-rendering="inherit" font-size="16" dy=".8em" y="30.09999990463257" font-family="微软雅黑,Microsoft YaHei" x="516.5">中国银联</text></g></g><g id="kity_g_12"><path id="kity_path_13" fill="none" stroke="none" d="M516.5,40.5h0v0h0z"></path></g><g id="kity_g_14"><path id="kity_path_15" fill="none" stroke="none" d="M516.5,40.5h0v0h0z"></path><path id="kity_path_16" fill="none" stroke="none"></path></g><g id="minder_node2"><g id="node_expander5" style="cursor: pointer;"><path id="kity_path_148" fill="white" stroke="gray" d="M71.5,103.5A6,6,0,1,1,59.5,103.5A6,6,0,1,1,71.5,103.5"></path><path id="kity_path_149" fill="none" stroke="gray" d="M61,103.5L70,103.5"></path></g><path id="node_outline6" fill="#eaf1dd" stroke="rgb(115, 161, 191)" d="M23.5,110.5h84a3,3,0,0,1,3,3v22a3,3,0,0,1,-3,3h-84a3,3,0,0,1,-3,-3v-22a3,3,0,0,1,3,-3z" stroke-width="1"></path><g id="node_text6" fill="black"><text id="kity_text_81" text-rendering="inherit" font-family="微软雅黑,Microsoft YaHei" font-size="16" dy=".8em" y="114.09999990463257" x="40.5">技术类</text></g><g id="node_progress1" display="none"><path id="kity_path_199" fill="#FFED83" stroke="none" d="M35,125A9,9,0,1,1,17,125A9,9,0,1,1,35,125"></path><path id="kity_path_200" fill="#43BC00" stroke="none" d="M26,125"></path><path id="kity_path_201" fill="#8E8E8E" stroke="none" d="M26,118c4.418,0,8,3.582,8,8h1c0,-5.523,-3.477,-10,-9,-10S17,120.477,17,126h1C18,121.582,21.582,118,26,118z"></path><path id="kity_path_203" fill="#EEE" stroke="none" d="M41.812,132.896l-6.75,6.75l-4.5,-4.5L32.25,133.459l2.812,2.803l5.062,-5.053L41.812,132.896z" display="none"></path><path id="kity_path_202" fill="url(#kity_linearGradient_17)" stroke="none" d="M26,115C20.477,115,16,119.477,16,125c0,5.523,4.477,10,10,10s10,-4.477,10,-10C36,119.477,31.523,115,26,115zM26,133c-4.418,0,-8,-3.582,-8,-8s3.582,-8,8,-8s8,3.582,8,8S30.418,133,26,133z"></path></g><g id="node_priority1" display="none"><path id="kity_path_206" fill="#840023" stroke="none" d="M16,128c0,3.866,3.134,7,7,7h6c3.866,0,7,-3.134,7,-7V122H16V128z"></path><path id="kity_path_207" fill="#FF1200" stroke="none" d="M36,125c0,3.866,-3.134,7,-7,7H23c-3.866,0,-7,-3.134,-7,-7V122c0,-3.866,3.134,-7,7,-7h6c3.866,0,7,3.134,7,7V125z" opacity="0.8"></path><text id="kity_text_208" text-rendering="geometricPrecision" x="25" y="124.5" text-anchor="middle" font-style="italic" font-size="12" fill="white" dy="5">1</text></g></g><g id="minder_node3"><g id="node_expander1" style="cursor: pointer;" display="none"><path id="kity_path_136" fill="white" stroke="gray" d="M60.5,186.5A6,6,0,1,1,48.5,186.5A6,6,0,1,1,60.5,186.5"></path><path id="kity_path_137" fill="none" stroke="gray"></path></g><path id="node_outline2" fill="none" stroke="none" d="M65.5,173.5h92a5,5,0,0,1,5,5v16a5,5,0,0,1,-5,5h-92a5,5,0,0,1,-5,-5v-16a5,5,0,0,1,5,-5z" stroke-width="3"></path><g id="node_text2" fill="black"><text id="kity_text_73" text-rendering="inherit" font-family="微软雅黑,Microsoft YaHei" font-size="16" dy=".8em" y="176.09999990463257" x="70.5">技术开发类</text></g></g><g id="minder_node4"><g id="node_expander2" style="cursor: pointer;" display="none"><path id="kity_path_139" fill="white" stroke="gray" d="M60.5,242.5A6,6,0,1,1,48.5,242.5A6,6,0,1,1,60.5,242.5"></path><path id="kity_path_140" fill="none" stroke="gray"></path></g><path id="node_outline3" fill="none" stroke="none" d="M65.5,229.5h91a5,5,0,0,1,5,5v16a5,5,0,0,1,-5,5h-91a5,5,0,0,1,-5,-5v-16a5,5,0,0,1,5,-5z" stroke-width="3"></path><g id="node_text3" fill="black"><text id="kity_text_75" text-rendering="inherit" font-family="微软雅黑,Microsoft YaHei" font-size="16" dy=".8em" y="232.09999990463257" x="70.5">软件测试类</text></g></g><g id="minder_node5"><g id="node_expander3" style="cursor: pointer;" display="none"><path id="kity_path_142" fill="white" stroke="gray" d="M60.5,298.5A6,6,0,1,1,48.5,298.5A6,6,0,1,1,60.5,298.5"></path><path id="kity_path_143" fill="none" stroke="gray"></path></g><path id="node_outline4" fill="none" stroke="none" d="M65.5,285.5h91a5,5,0,0,1,5,5v16a5,5,0,0,1,-5,5h-91a5,5,0,0,1,-5,-5v-16a5,5,0,0,1,5,-5z" stroke-width="3"></path><g id="node_text4" fill="black"><text id="kity_text_77" text-rendering="inherit" font-family="微软雅黑,Microsoft YaHei" font-size="16" dy=".8em" y="288.09999990463257" x="70.5">系统运维类</text></g></g><g id="minder_node6"><g id="node_expander4" style="cursor: pointer;" display="none"><path id="kity_path_145" fill="white" stroke="gray" d="M60.5,354.5A6,6,0,1,1,48.5,354.5A6,6,0,1,1,60.5,354.5"></path><path id="kity_path_146" fill="none" stroke="gray"></path></g><path id="node_outline5" fill="none" stroke="none" d="M65.5,341.5h140a5,5,0,0,1,5,5v16a5,5,0,0,1,-5,5h-140a5,5,0,0,1,-5,-5v-16a5,5,0,0,1,5,-5z" stroke-width="3"></path><g id="node_text5" fill="black"><text id="kity_text_79" text-rendering="inherit" font-family="微软雅黑,Microsoft YaHei" font-size="16" dy=".8em" y="344.09999990463257" x="70.5">技术规划与标准类</text></g></g><g id="minder_node7"><g id="node_expander9" style="cursor: pointer;"><path id="kity_path_160" fill="white" stroke="gray" d="M325,103.5A6,6,0,1,1,313,103.5A6,6,0,1,1,325,103.5"></path><path id="kity_path_161" fill="none" stroke="gray" d="M314.5,103.5L323.5,103.5"></path></g><path id="node_outline10" fill="#e5dfec" stroke="rgb(115, 161, 191)" d="M253.5,110.5h131a3,3,0,0,1,3,3v22a3,3,0,0,1,-3,3h-131a3,3,0,0,1,-3,-3v-22a3,3,0,0,1,3,-3z" stroke-width="1"></path><g id="node_text10" fill="black"><text id="kity_text_89" text-rendering="inherit" font-family="微软雅黑,Microsoft YaHei" font-size="16" dy=".8em" y="114.09999990463257" x="270.5">市场与产品类</text></g></g><g id="minder_node8"><g id="node_expander6" style="cursor: pointer;" display="none"><path id="kity_path_151" fill="white" stroke="gray" d="M290.5,186.5A6,6,0,1,1,278.5,186.5A6,6,0,1,1,290.5,186.5"></path><path id="kity_path_152" fill="none" stroke="gray"></path></g><path id="node_outline7" fill="none" stroke="none" d="M295.5,173.5h59a5,5,0,0,1,5,5v16a5,5,0,0,1,-5,5h-59a5,5,0,0,1,-5,-5v-16a5,5,0,0,1,5,-5z" stroke-width="3"></path><g id="node_text7" fill="black"><text id="kity_text_83" text-rendering="inherit" font-family="微软雅黑,Microsoft YaHei" font-size="16" dy=".8em" y="176.09999990463257" x="300.5">市场类</text></g></g><g id="minder_node9"><g id="node_expander7" style="cursor: pointer;" display="none"><path id="kity_path_154" fill="white" stroke="gray" d="M290.5,242.5A6,6,0,1,1,278.5,242.5A6,6,0,1,1,290.5,242.5"></path><path id="kity_path_155" fill="none" stroke="gray"></path></g><path id="node_outline8" fill="none" stroke="none" d="M295.5,229.5h60a5,5,0,0,1,5,5v16a5,5,0,0,1,-5,5h-60a5,5,0,0,1,-5,-5v-16a5,5,0,0,1,5,-5z" stroke-width="3"></path><g id="node_text8" fill="black"><text id="kity_text_85" text-rendering="inherit" font-family="微软雅黑,Microsoft YaHei" font-size="16" dy=".8em" y="232.09999990463257" x="300.5">产品类</text></g></g><g id="minder_node10"><g id="node_expander8" style="cursor: pointer;" display="none"><path id="kity_path_157" fill="white" stroke="gray" d="M290.5,298.5A6,6,0,1,1,278.5,298.5A6,6,0,1,1,290.5,298.5"></path><path id="kity_path_158" fill="none" stroke="gray"></path></g><path id="node_outline9" fill="none" stroke="none" d="M295.5,285.5h59a5,5,0,0,1,5,5v16a5,5,0,0,1,-5,5h-59a5,5,0,0,1,-5,-5v-16a5,5,0,0,1,5,-5z" stroke-width="3"></path><g id="node_text9" fill="black"><text id="kity_text_87" text-rendering="inherit" font-family="微软雅黑,Microsoft YaHei" font-size="16" dy=".8em" y="288.09999990463257" x="300.5">运营类</text></g></g><g id="minder_node11"><g id="node_expander14" style="cursor: pointer;"><path id="kity_path_175" fill="white" stroke="gray" d="M478,103.5A6,6,0,1,1,466,103.5A6,6,0,1,1,478,103.5"></path><path id="kity_path_176" fill="none" stroke="gray" d="M467.5,103.5L476.5,103.5"></path></g><path id="node_outline15" fill="#daeef3" stroke="rgb(115, 161, 191)" d="M430.5,110.5h83a3,3,0,0,1,3,3v22a3,3,0,0,1,-3,3h-83a3,3,0,0,1,-3,-3v-22a3,3,0,0,1,3,-3z" stroke-width="1"></path><g id="node_text15" fill="black"><text id="kity_text_99" text-rendering="inherit" font-family="微软雅黑,Microsoft YaHei" font-size="16" dy=".8em" y="114.09999990463257" x="447.5">专业类</text></g></g><g id="minder_node12"><g id="node_expander10" style="cursor: pointer;" display="none"><path id="kity_path_163" fill="white" stroke="gray" d="M467.5,186.5A6,6,0,1,1,455.5,186.5A6,6,0,1,1,467.5,186.5"></path><path id="kity_path_164" fill="none" stroke="gray"></path></g><path id="node_outline11" fill="none" stroke="none" d="M472.5,173.5h139a5,5,0,0,1,5,5v16a5,5,0,0,1,-5,5h-139a5,5,0,0,1,-5,-5v-16a5,5,0,0,1,5,-5z" stroke-width="3"></path><g id="node_text11" fill="black"><text id="kity_text_91" text-rendering="inherit" font-family="微软雅黑,Microsoft YaHei" font-size="16" dy=".8em" y="176.09999990463257" x="477.5">业务规则与标准类</text></g></g><g id="minder_node13"><g id="node_expander11" style="cursor: pointer;" display="none"><path id="kity_path_166" fill="white" stroke="gray" d="M467.5,242.5A6,6,0,1,1,455.5,242.5A6,6,0,1,1,467.5,242.5"></path><path id="kity_path_167" fill="none" stroke="gray"></path></g><path id="node_outline12" fill="none" stroke="none" d="M472.5,229.5h60a5,5,0,0,1,5,5v16a5,5,0,0,1,-5,5h-60a5,5,0,0,1,-5,-5v-16a5,5,0,0,1,5,-5z" stroke-width="3"></path><g id="node_text12" fill="black"><text id="kity_text_93" text-rendering="inherit" font-family="微软雅黑,Microsoft YaHei" font-size="16" dy=".8em" y="232.09999990463257" x="477.5">风险类</text></g></g><g id="minder_node14"><g id="node_expander12" style="cursor: pointer;" display="none"><path id="kity_path_169" fill="white" stroke="gray" d="M467.5,298.5A6,6,0,1,1,455.5,298.5A6,6,0,1,1,467.5,298.5"></path><path id="kity_path_170" fill="none" stroke="gray"></path></g><path id="node_outline13" fill="none" stroke="none" d="M472.5,285.5h91a5,5,0,0,1,5,5v16a5,5,0,0,1,-5,5h-91a5,5,0,0,1,-5,-5v-16a5,5,0,0,1,5,-5z" stroke-width="3"></path><g id="node_text13" fill="black"><text id="kity_text_95" text-rendering="inherit" font-family="微软雅黑,Microsoft YaHei" font-size="16" dy=".8em" y="288.09999990463257" x="477.5">战略研究类</text></g></g><g id="minder_node15"><g id="node_expander13" style="cursor: pointer;" display="none"><path id="kity_path_172" fill="white" stroke="gray" d="M467.5,354.5A6,6,0,1,1,455.5,354.5A6,6,0,1,1,467.5,354.5"></path><path id="kity_path_173" fill="none" stroke="gray"></path></g><path id="node_outline14" fill="none" stroke="none" d="M472.5,341.5h92a5,5,0,0,1,5,5v16a5,5,0,0,1,-5,5h-92a5,5,0,0,1,-5,-5v-16a5,5,0,0,1,5,-5z" stroke-width="3"></path><g id="node_text14" fill="black"><text id="kity_text_97" text-rendering="inherit" font-family="微软雅黑,Microsoft YaHei" font-size="16" dy=".8em" y="344.09999990463257" x="477.5">数据分析类</text></g></g><g id="minder_node16"><g id="node_expander17" style="cursor: pointer;"><path id="kity_path_184" fill="white" stroke="gray" d="M707,103.5A6,6,0,1,1,695,103.5A6,6,0,1,1,707,103.5"></path><path id="kity_path_185" fill="none" stroke="gray" d="M696.5,103.5L705.5,103.5"></path></g><path id="node_outline18" fill="#fde9d9" stroke="rgb(115, 161, 191)" d="M659.5,110.5h83a3,3,0,0,1,3,3v22a3,3,0,0,1,-3,3h-83a3,3,0,0,1,-3,-3v-22a3,3,0,0,1,3,-3z" stroke-width="1"></path><g id="node_text18" fill="black"><text id="kity_text_105" text-rendering="inherit" font-family="微软雅黑,Microsoft YaHei" font-size="16" dy=".8em" y="114.09999990463257" x="676.5">职能类</text></g></g><g id="minder_node17"><g id="node_expander15" style="cursor: pointer;" display="none"><path id="kity_path_178" fill="white" stroke="gray" d="M696.5,186.5A6,6,0,1,1,684.5,186.5A6,6,0,1,1,696.5,186.5"></path><path id="kity_path_179" fill="none" stroke="gray"></path></g><path id="node_outline16" fill="none" stroke="none" d="M701.5,173.5h60a5,5,0,0,1,5,5v16a5,5,0,0,1,-5,5h-60a5,5,0,0,1,-5,-5v-16a5,5,0,0,1,5,-5z" stroke-width="3"></path><g id="node_text16" fill="black"><text id="kity_text_101" text-rendering="inherit" font-family="微软雅黑,Microsoft YaHei" font-size="16" dy=".8em" y="176.09999990463257" x="706.5">行政类</text></g></g><g id="minder_node18"><g id="node_expander16" style="cursor: pointer;" display="none"><path id="kity_path_181" fill="white" stroke="gray" d="M696.5,242.5A6,6,0,1,1,684.5,242.5A6,6,0,1,1,696.5,242.5"></path><path id="kity_path_182" fill="none" stroke="gray"></path></g><path id="node_outline17" fill="none" stroke="none" d="M701.5,229.5h60a5,5,0,0,1,5,5v16a5,5,0,0,1,-5,5h-60a5,5,0,0,1,-5,-5v-16a5,5,0,0,1,5,-5z" stroke-width="3"></path><g id="node_text17" fill="black"><text id="kity_text_103" text-rendering="inherit" font-family="微软雅黑,Microsoft YaHei" font-size="16" dy=".8em" y="232.09999990463257" x="706.5">基建类</text></g></g><g id="minder_node19"><g id="node_expander19" style="cursor: pointer;"><path id="kity_path_190" fill="white" stroke="gray" d="M873.5,103.5A6,6,0,1,1,861.5,103.5A6,6,0,1,1,873.5,103.5"></path><path id="kity_path_191" fill="none" stroke="gray" d="M863,103.5L872,103.5"></path></g><path id="node_outline20" fill="#ddd8c2" stroke="rgb(115, 161, 191)" d="M809.5,110.5h116a3,3,0,0,1,3,3v22a3,3,0,0,1,-3,3h-116a3,3,0,0,1,-3,-3v-22a3,3,0,0,1,3,-3z" stroke-width="1"></path><g id="node_text20" fill="black"><text id="kity_text_109" text-rendering="inherit" font-family="微软雅黑,Microsoft YaHei" font-size="16" dy=".8em" y="114.09999990463257" x="826.5">管理培训生</text></g></g><g id="minder_node20"><g id="node_expander18" style="cursor: pointer;" display="none"><path id="kity_path_187" fill="white" stroke="gray" d="M846.5,186.5A6,6,0,1,1,834.5,186.5A6,6,0,1,1,846.5,186.5"></path><path id="kity_path_188" fill="none" stroke="gray"></path></g><path id="node_outline19" fill="none" stroke="none" d="M851.5,173.5h92a5,5,0,0,1,5,5v16a5,5,0,0,1,-5,5h-92a5,5,0,0,1,-5,-5v-16a5,5,0,0,1,5,-5z" stroke-width="3"></path><g id="node_text19" fill="black"><text id="kity_text_107" text-rendering="inherit" font-family="微软雅黑,Microsoft YaHei" font-size="16" dy=".8em" y="176.09999990463257" x="856.5">管理培训生</text></g></g><g id="minder_node21"><g id="node_expander21" style="cursor: pointer;"><path id="kity_path_196" fill="white" stroke="gray" d="M1039.5,103.5A6,6,0,1,1,1027.5,103.5A6,6,0,1,1,1039.5,103.5"></path><path id="kity_path_197" fill="none" stroke="gray" d="M1029,103.5L1038,103.5"></path></g><path id="node_outline22" fill="#f2dbdb" stroke="rgb(115, 161, 191)" d="M991.5,110.5h84a3,3,0,0,1,3,3v22a3,3,0,0,1,-3,3h-84a3,3,0,0,1,-3,-3v-22a3,3,0,0,1,3,-3z" stroke-width="1"></path><g id="node_text22" fill="black"><text id="kity_text_113" text-rendering="inherit" font-family="微软雅黑,Microsoft YaHei" font-size="16" dy=".8em" y="114.09999990463257" x="1008.5">管理类</text></g></g><g id="minder_node22"><g id="node_expander20" style="cursor: pointer;" display="none"><path id="kity_path_193" fill="white" stroke="gray" d="M1028.5,186.5A6,6,0,1,1,1016.5,186.5A6,6,0,1,1,1028.5,186.5"></path><path id="kity_path_194" fill="none" stroke="gray"></path></g><path id="node_outline21" fill="none" stroke="none" d="M1033.5,173.5h38a5,5,0,0,1,5,5v16a5,5,0,0,1,-5,5h-38a5,5,0,0,1,-5,-5v-16a5,5,0,0,1,5,-5z" stroke-width="3"></path><g id="node_text21" fill="black"><text id="kity_text_111" text-rendering="inherit" font-family="微软雅黑,Microsoft YaHei" font-size="16" dy=".8em" y="176.09999990463257" x="1038.5">null</text></g></g></g></g></svg>